<?xml version="1.0" encoding="utf-8"?>
<!-- Generator: Adobe Illustrator 19.2.0, SVG Export Plug-In . SVG Version: 6.00 Build 0)  -->
<svg version="1.1" id="Calque_1" xmlns="http://www.w3.org/2000/svg" xmlns:xlink="http://www.w3.org/1999/xlink" x="0px" y="0px"
	 viewBox="0 0 841.9 595.3" style="enable-background:new 0 0 841.9 595.3;" xml:space="preserve">
<style type="text/css">
	.st0{fill:#010202;}
</style>
<g>
	<path class="st0" d="M152,223.1c0.4,0.1,0.9,0.1,1.3,0.1c4.4,0,8.2-3.2,8.8-7.7c0.7-4.9-2.7-9.4-7.6-10.1
		c-21.2-3-47.2-8.2-61.2-21.1c-11.3-10.5-21.7-33-25.1-54.7c-0.8-4.9-5.4-8.2-10.2-7.4c-4.9,0.8-8.2,5.4-7.4,10.2
		c3.4,21.4,14.2,49.8,30.6,65C98.8,213.7,128.2,219.7,152,223.1z"/>
	<path class="st0" d="M176.4,225.5l2.1,0.2c0.3,0,0.7,0.1,1,0.1c4.5,0,8.4-3.4,8.9-7.9c0.5-4.9-3-9.3-7.9-9.9l-2-0.2
		c-4.9-0.6-9.3,2.9-9.9,7.8C167.9,220.5,171.5,225,176.4,225.5z"/>
	<path class="st0" d="M820.1,93.9c-5.9-21.8-20.6-35.9-42.5-40.7c-29.7-6.5-88.2,17.5-179.1,73.5C546,159.1,498,193,481.1,205.1
		c-1.2-1.3-2.5-2.6-3.9-3.8l49-44.7c1.8-1.6,3-3.8,3.5-6.2l7.8-41.7c1.1-6.1-2.8-11.9-8.9-13c-6.1-1.1-11.9,2.8-13,8.9l-7.2,38.1
		l-51.7,47.1c-3.5-1.4-7-2.5-10.4-3.4c14.8-11.8,28.9-30.8,28.9-50.6c0-18.3-12.2-27.3-27.4-31.4c10.6-11.1,28.2-26.7,50.1-34.7
		c4.6-1.7,7-6.8,5.3-11.4c-1.7-4.6-6.8-7-11.4-5.3c-32.5,11.8-56.1,37.3-65.3,48.5c-1.9-0.1-3.9-0.1-5.8-0.1l0,0l0,0l0,0l0,0
		c-1.9,0-3.8,0-5.8,0.1c-9.2-11.1-32.8-36.6-65.3-48.5c-4.6-1.7-9.8,0.7-11.4,5.3c-1.7,4.6,0.7,9.8,5.3,11.4
		c21.8,7.9,39.5,23.5,50.1,34.7c-15.2,4.1-27.4,13.1-27.4,31.4c0,19.8,14.1,38.8,28.9,50.6c-3.3,0.9-6.8,2.1-10.4,3.4l-51.7-47.1
		l-7.2-38.1c-1.1-6.1-7-10-13-8.9c-6.1,1.1-10,7-8.9,13l7.8,41.7c0.4,2.4,1.7,4.6,3.5,6.2l49,44.7c-1.4,1.2-2.7,2.4-3.9,3.8
		c-16.9-12.1-64.9-46-117.5-78.4c-90.8-56-149.4-80-179.1-73.5C41.9,58,27.2,72.1,21.3,93.9C10.3,134.6,33.5,195.6,60.9,221
		c12.9,12,29.1,19.7,46.9,25c-1.9,7.3-1.4,13.9-0.3,18.9c3.8,17.9,18.7,35.1,44.5,51c13.4,8.3,35.5,11.5,61.8,11.5
		c41.1,0,92.7-7.7,138.6-15.7c3.1-0.5,6.2-1.1,8.7-1.5c1.3,2.7,2.8,5.3,4.4,7.6l-92.5,27.6c-2.6,0.8-4.8,2.4-6.2,4.7l-23.2,36.5
		c-3.3,5.2-1.8,12.1,3.5,15.4c1.9,1.2,3.9,1.7,6,1.7c3.7,0,7.3-1.8,9.4-5.2l20.9-33l63.2-18.9c-4.9,7.4-8.6,16.9-10.6,29l-50.4,24.1
		c-2.9,1.4-5.1,4-6,7.2L266.8,454c-1.6,6,1.9,12.1,7.9,13.7c1,0.3,1.9,0.4,2.9,0.4c4.9,0,9.4-3.3,10.8-8.3l11.3-42.1l33.7-16.1
		c-1,14.1-0.4,19.1,5.9,39.9c7.6,25.2,19.8,54.1,52.1,77.8c14.9,10.9,16,20.8,16,21.2c0-0.3,0-0.5,0-0.5h0
		c0.1,7.3,6.1,13.1,13.4,13.1c7.3,0,13.2-5.9,13.4-13.1h0c0-0.1,1.3-10,16-20.7c32.4-23.7,44.5-52.6,52.1-77.8
		c6.3-20.8,6.9-25.9,5.9-39.9l33.7,16.1l11.3,42.1c1.3,5,5.8,8.3,10.8,8.3c1,0,1.9-0.1,2.9-0.4c6-1.6,9.5-7.7,7.9-13.7L562,407
		c-0.8-3.1-3-5.8-6-7.2l-50.4-24.1c-2.1-12.1-5.8-21.6-10.6-29l63.2,18.9l20.9,33c2.1,3.4,5.7,5.2,9.4,5.2c2,0,4.1-0.6,6-1.7
		c5.2-3.3,6.8-10.2,3.5-15.4L574.8,350c-1.4-2.3-3.7-4-6.2-4.7l-92.5-27.6c1.6-2.3,3.1-4.9,4.4-7.6c2.5,0.4,5.6,1,8.7,1.5
		c45.8,8,97.4,15.8,138.6,15.7c26.3,0,48.4-3.2,61.8-11.5c25.8-15.9,40.7-33.1,44.5-51c1.1-5,1.5-11.6-0.3-18.9
		c17.8-5.3,34-13,47-25C807.9,195.6,831.2,134.6,820.1,93.9z M475.1,434.2c-16.2,5.3-34.8,8-54,8c-19.4,0-38.3-2.8-54.6-8.2
		c-0.5-0.2-1.1-0.3-1.6-0.4c-4.5-14.9-5.4-18.4-5-26.9c18.7,5.3,39.4,8.1,60.9,8.1c21.5,0,42.2-2.8,60.9-8.1c0.4,8.6-0.5,12-5,27.1
		c0,0,0,0,0,0.1C476.1,434,475.6,434.1,475.1,434.2z M420.7,381.3c-20.5,0-40.1-2.9-57-8.4c6.3-23.2,23-25.8,57-25.8h0h0
		c34.1,0,50.8,2.6,57,25.8C460.8,378.4,441.2,381.3,420.7,381.3z M420.7,312.5c-30.1,0-35.3-4.5-43.1-37.2
		c-8.7-36.8-1.5-50.2,6.1-55.1c14.6-9.3,33.7-11,37-11.2c3.3,0.2,22.4,1.9,37,11.2c7.6,4.8,14.8,18.3,6.1,55.1
		C456.1,308,450.8,312.5,420.7,312.5z M396.9,131.3c3.4-1.5,10.3-3.2,23.8-3.2c13.5,0,20.4,1.8,23.8,3.2c3.8,1.7,3.8,2.9,3.8,4.5
		c0,15.2-19.7,32-27.6,35.4c-8-3.4-27.6-20.2-27.6-35.4C393.1,134.2,393.1,133,396.9,131.3z M42.9,99.7C46.6,86.1,55,78,68.6,75
		c13.2-2.9,51.8,2.4,162.4,70.6c54.8,33.8,104.6,69.2,118.6,79.3c-1.9,6.9-2.8,14.7-2.7,23.4c-22-0.2-80-1.5-128.2-8.2
		c-10.7-1.5-22-2.7-32.9-3.8c-19.8-2.1-39.9-4.2-58.3-8.2c-1.1-0.4-2.3-0.7-3.5-0.8c-19.1-4.5-35.9-11.3-48.2-22.6
		C53.9,184.1,34.2,131.6,42.9,99.7z M348.5,289.6c-101.6,17.8-163.8,20.2-184.8,7.3c-25.3-15.6-32.7-28.5-34.4-36.6
		c-0.7-3.2-0.6-6.2,0.2-9.1c17.5,3.4,35.9,5.3,54,7.2c11.2,1.2,21.8,2.3,32.1,3.7c52,7.3,113.3,8.4,133.6,8.5
		c0.6,3.5,1.4,7,2.2,10.7c0.6,2.5,1.2,5,1.8,7.3C351.9,289,350.3,289.3,348.5,289.6z M434.3,497.7c-5.6,4.1-10,8.3-13.6,12.3
		c-3.5-4.1-8-8.2-13.6-12.3c-10.7-7.8-18.7-16.2-24.9-25.3c12.5,2.2,25.5,3.4,38.8,3.4c13,0,25.8-1.1,38.1-3.2
		C452.9,481.6,445,489.9,434.3,497.7z M712.1,260.3c-1.7,8.1-9,20.9-34.4,36.6c-21,13-83.1,10.5-184.8-7.3c-1.8-0.3-3.4-0.6-4.9-0.9
		c0.6-2.4,1.2-4.8,1.8-7.3c0.9-3.7,1.6-7.3,2.2-10.7c20.3-0.1,81.6-1.2,133.6-8.5c10.3-1.4,20.9-2.6,32.1-3.7
		c18.2-1.9,36.6-3.8,54-7.2C712.7,254.1,712.7,257.1,712.1,260.3z M765.4,204.6c-12.2,11.3-29.1,18.1-48.2,22.6
		c-1.2,0.1-2.4,0.4-3.5,0.8c-18.3,4-38.4,6.2-58.3,8.2c-10.9,1.1-22.2,2.3-32.9,3.8c-48.1,6.8-106.1,8-128.2,8.2
		c0.2-8.7-0.7-16.5-2.7-23.4c14-10.1,63.8-45.5,118.6-79.3C721.1,77.5,759.7,72.2,772.9,75c13.6,3,22,11.1,25.7,24.7
		C807.2,131.7,787.6,184.1,765.4,204.6z"/>
</g>
<g>
	<g>
		<path class="st0" d="M701.8,123.1c-3.1,0.4-6.3-1.2-7.6-4.2c-1.6-3.7,0-7.9,3.7-9.6c1.3-0.6,2.7-1.2,4-1.7
			c3.7-1.6,7.9,0.1,9.5,3.8c1.6,3.7-0.1,7.9-3.8,9.5c-1.3,0.5-2.6,1.1-3.9,1.7C703.1,122.8,702.5,123,701.8,123.1z M777.7,108.2
			c-2.7,0.4-5.5-0.8-7.1-3.2c-0.6-0.9-2.8-1.5-4.6-1.9c-0.1,0-10.2-1.6-43.6,11.6c-3.7,1.5-7.9-0.4-9.4-4.1
			c-1.5-3.7,0.4-7.9,4.1-9.4C751.8,87.6,765,88.1,769,88.9c4.2,0.9,10.1,2.7,13.7,8.1c2.2,3.3,1.3,7.8-2.1,10
			C779.7,107.7,778.7,108.1,777.7,108.2z"/>
	</g>
</g>
</svg>
