<svg xmlns="http://www.w3.org/2000/svg" xmlns:xlink="http://www.w3.org/1999/xlink" version="1.1" x="0px" y="0px" viewBox="0 0 901 1126.25" enable-background="new 0 0 901 901" xml:space="preserve"><g><path fill="#000000" d="M248.017,430.076c0.324,0.046,0.646,0.068,0.963,0.068c3.294,0,6.173-2.42,6.654-5.775   c0.527-3.68-2.028-7.09-5.708-7.617c-15.948-2.285-35.599-6.153-46.092-15.865c-8.543-7.903-16.328-24.862-18.935-41.245   c-0.583-3.672-4.035-6.169-7.703-5.589c-3.671,0.583-6.173,4.032-5.589,7.703c2.567,16.14,10.702,37.553,23.085,49.01   C207.914,423.003,230.135,427.514,248.017,430.076z"/><path fill="#000000" d="M266.379,431.885l1.568,0.177c0.251,0.028,0.5,0.041,0.748,0.041c3.385,0,6.3-2.547,6.681-5.99   c0.409-3.693-2.255-7.02-5.95-7.428l-1.5-0.17c-3.701-0.43-7.031,2.221-7.459,5.912S262.688,431.457,266.379,431.885z"/><path fill="#000000" d="M751.436,332.711c-4.457-16.421-15.518-27.016-31.986-30.638c-22.347-4.916-66.479,13.191-134.909,55.357   c-39.635,24.423-75.817,49.959-88.54,59.077c-0.924-1.01-1.919-1.954-2.97-2.849l36.891-33.645c1.35-1.231,2.262-2.867,2.6-4.662   l5.91-31.436c0.858-4.565-2.147-8.963-6.714-9.821c-4.567-0.864-8.963,2.147-9.822,6.713l-5.39,28.67l-38.944,35.519   c-2.667-1.037-5.299-1.891-7.812-2.59c11.16-8.862,21.769-23.197,21.769-38.127c0-13.77-9.156-20.563-20.653-23.674   c7.966-8.381,21.252-20.101,37.77-26.11c3.493-1.272,5.293-5.134,4.023-8.627c-1.27-3.492-5.134-5.295-8.625-4.024   c-24.494,8.913-42.271,28.118-49.178,36.516c-1.464-0.059-2.92-0.089-4.354-0.089l0,0c0,0,0,0,0,0s0,0,0,0l0,0   c-1.434,0-2.89,0.03-4.354,0.089c-6.907-8.397-24.684-27.603-49.177-36.515c-3.495-1.272-7.355,0.531-8.625,4.023   c-1.271,3.493,0.53,7.354,4.023,8.626c16.451,5.985,29.761,17.724,37.75,26.116c-11.487,3.113-20.633,9.907-20.633,23.669   c0,14.93,10.608,29.265,21.768,38.127c-2.513,0.7-5.145,1.554-7.812,2.59l-38.944-35.519l-5.39-28.67   c-0.859-4.565-5.252-7.572-9.822-6.713c-4.566,0.858-7.572,5.256-6.714,9.821l5.91,31.436c0.338,1.795,1.25,3.431,2.6,4.662   l36.889,33.646c-1.05,0.894-2.044,1.837-2.968,2.846c-12.725-9.119-48.906-34.654-88.539-59.075   c-68.43-42.164-112.56-60.271-134.909-55.355c-16.468,3.621-27.53,14.215-31.987,30.635c-8.328,30.677,9.187,76.652,29.81,95.734   c9.757,9.028,21.929,14.85,35.374,18.846c-1.396,5.467-1.042,10.464-0.248,14.246c2.836,13.517,14.113,26.444,33.517,38.425   c10.129,6.254,26.718,8.644,46.561,8.642c30.972,0,69.86-5.824,104.393-11.866c2.302-0.402,4.636-0.811,6.521-1.129   c1.007,2.061,2.105,3.964,3.309,5.723L339.1,522.143c-1.943,0.579-3.612,1.844-4.698,3.557l-17.443,27.53   c-2.487,3.925-1.321,9.122,2.604,11.609c1.397,0.885,2.955,1.307,4.494,1.307c2.787,0,5.513-1.384,7.114-3.911l15.759-24.872   l47.589-14.206c-3.66,5.576-6.449,12.721-8.011,21.872l-37.988,18.167c-2.216,1.06-3.858,3.035-4.495,5.407l-9.522,35.455   c-1.205,4.487,1.456,9.102,5.943,10.307c0.731,0.195,1.465,0.289,2.187,0.289c3.712,0,7.111-2.476,8.12-6.231l8.518-31.718   l25.366-12.13c-0.736,10.589-0.287,14.393,4.456,30.075c5.74,18.969,14.895,40.766,39.271,58.599   c11.234,8.219,12.027,15.67,12.055,15.983c-0.021-0.238-0.013-0.364-0.013-0.364h0.012c0.103,5.485,4.574,9.902,10.084,9.902   c5.509,0,9.979-4.415,10.084-9.899h0.009c0-0.068,0.976-7.524,12.045-15.622c24.38-17.838,33.532-39.633,39.268-58.599   c4.746-15.682,5.194-19.485,4.458-30.075l25.366,12.13l8.517,31.718c1.009,3.756,4.406,6.231,8.12,6.231   c0.722,0,1.456-0.094,2.187-0.289c4.487-1.205,7.147-5.819,5.943-10.307l-9.521-35.454c-0.638-2.373-2.28-4.349-4.496-5.408   l-37.988-18.166c-1.562-9.152-4.351-16.297-8.011-21.873l47.589,14.206l15.759,24.872c1.602,2.527,4.328,3.911,7.114,3.911   c1.54,0,3.097-0.422,4.495-1.307c3.924-2.487,5.09-7.685,2.603-11.609l-17.442-27.53c-1.086-1.713-2.755-2.978-4.698-3.557   l-69.701-20.812c1.204-1.759,2.302-3.662,3.31-5.723c1.885,0.317,4.219,0.727,6.521,1.129   c34.539,6.044,73.418,11.868,104.393,11.866c19.835,0,36.435-2.39,46.56-8.642c19.403-11.98,30.679-24.907,33.517-38.423   c0.792-3.774,1.147-8.761-0.258-14.245c13.448-3.996,25.624-9.818,35.384-18.849C742.248,409.363,759.762,363.388,751.436,332.711z    M491.453,589.148c-12.176,3.966-26.257,6.062-40.72,6.062c-14.636,0-28.86-2.144-41.135-6.199   c-0.405-0.134-0.812-0.244-1.219-0.336c-3.391-11.212-4.07-13.854-3.753-20.271c14.071,3.981,29.706,6.068,45.875,6.068   c16.167,0,31.802-2.087,45.873-6.068c0.318,6.443-0.366,9.076-3.792,20.399c-0.004,0.014-0.009,0.028-0.013,0.042   C492.196,588.931,491.823,589.027,491.453,589.148z M450.501,549.235c-15.458,0-30.195-2.175-42.979-6.312   c4.738-17.485,17.306-19.419,42.977-19.419h0.001h0.001c25.671,0,38.24,1.934,42.978,19.419   C480.694,547.061,465.957,549.235,450.501,549.235z M450.5,497.4c-22.682,0-26.624-3.409-32.446-28.059   c-6.545-27.692-1.117-37.847,4.588-41.488c11.036-7.04,25.383-8.281,27.856-8.446c2.461,0.167,16.857,1.426,27.859,8.445   c5.705,3.642,11.134,13.796,4.59,41.49C477.123,493.991,473.181,497.4,450.5,497.4z M432.557,360.897   c2.559-1.111,7.747-2.437,17.943-2.437c10.197,0,15.386,1.325,17.944,2.437c2.885,1.253,2.885,2.192,2.885,3.383   c0,11.455-14.812,24.079-20.828,26.669c-6.017-2.59-20.828-15.214-20.828-26.669C429.672,363.09,429.672,362.15,432.557,360.897z    M165.802,337.117c2.788-10.27,9.122-16.356,19.363-18.608c9.915-2.184,39.003,1.827,122.387,53.195   c41.298,25.442,78.825,52.125,89.396,59.734c-1.458,5.173-2.127,11.048-2.002,17.618c-16.6-0.173-60.314-1.114-96.56-6.208   c-8.033-1.13-16.549-2.025-24.785-2.89c-14.93-1.568-30.098-3.165-43.899-6.211c-0.82-0.328-1.703-0.539-2.618-0.6   c-14.357-3.412-27.08-8.539-36.282-17.053C174.093,400.637,159.277,361.155,165.802,337.117z M396.07,480.163   c-76.566,13.397-123.406,15.242-139.213,5.482c-19.091-11.788-24.616-21.497-25.89-27.565c-0.499-2.378-0.431-4.663,0.165-6.841   c13.162,2.554,27.028,4.015,40.71,5.452c8.464,0.89,16.458,1.729,24.201,2.818c39.185,5.508,85.384,6.292,100.678,6.396   c0.471,2.615,1.028,5.305,1.684,8.079c0.451,1.91,0.911,3.753,1.385,5.53C398.654,479.711,397.412,479.929,396.07,480.163z    M460.717,636.952c-4.222,3.089-7.568,6.24-10.217,9.301c-2.65-3.061-5.995-6.212-10.217-9.301   c-8.078-5.909-14.082-12.208-18.766-19.03c9.396,1.663,19.249,2.526,29.216,2.526c9.774,0,19.448-0.83,28.687-2.433   C474.744,624.802,468.758,631.069,460.717,636.952z M670.033,458.081c-1.273,6.068-6.8,15.777-25.891,27.564   c-15.806,9.759-62.646,7.915-139.213-5.482c-1.341-0.235-2.583-0.452-3.718-0.649c0.474-1.776,0.934-3.618,1.385-5.528   c0.656-2.774,1.213-5.465,1.683-8.08c15.296-0.104,61.495-0.889,100.678-6.396c7.741-1.089,15.736-1.929,24.2-2.817   c13.683-1.438,27.548-2.899,40.711-5.453C670.464,453.418,670.532,455.703,670.033,458.081z M710.198,416.096   c-9.202,8.515-21.925,13.641-36.282,17.053c-0.915,0.061-1.797,0.271-2.617,0.599c-13.801,3.047-28.97,4.643-43.9,6.212   c-8.236,0.865-16.752,1.76-24.784,2.889c-36.233,5.094-79.961,6.037-96.561,6.209c0.124-6.569-0.544-12.444-2.003-17.616   c10.566-7.605,48.096-34.291,89.397-59.736c83.38-51.367,112.468-55.38,122.387-53.197c10.242,2.252,16.575,8.34,19.363,18.61   C741.723,361.157,726.906,400.637,710.198,416.096z"/></g><g><g><path fill="#000000" d="M662.297,354.705c-2.354,0.335-4.737-0.908-5.749-3.188c-1.223-2.753,0.02-5.975,2.772-7.196    c1.016-0.451,2.014-0.891,2.992-1.314c2.758-1.2,5.974,0.065,7.175,2.826c1.199,2.763-0.066,5.976-2.829,7.175    c-0.952,0.414-1.925,0.842-2.916,1.282C663.271,354.498,662.784,354.635,662.297,354.705z M719.476,343.49    c-2.024,0.288-4.126-0.578-5.325-2.398c-0.451-0.687-2.124-1.161-3.445-1.439c-0.046-0.007-7.7-1.176-32.848,8.708    c-2.802,1.101-5.968-0.277-7.071-3.08c-1.102-2.803,0.278-5.968,3.082-7.069c26.1-10.259,36.024-9.873,39.081-9.231    c3.131,0.659,7.605,2.008,10.308,6.111c1.657,2.515,0.962,5.897-1.553,7.554C721.009,343.102,720.248,343.38,719.476,343.49z"/></g></g><text x="0" y="916" fill="#000000" font-size="5px" font-weight="bold" font-family="'Helvetica Neue', Helvetica, Arial-Unicode, Arial, Sans-serif">Created by ronaldo botelho</text><text x="0" y="921" fill="#000000" font-size="5px" font-weight="bold" font-family="'Helvetica Neue', Helvetica, Arial-Unicode, Arial, Sans-serif">from the Noun Project</text></svg>